<svg width="33" height="32" viewBox="0 0 33 32" fill="none" xmlns="http://www.w3.org/2000/svg">
<path d="M14.2865 5H6.26361C5.70974 5 5.26074 5.44772 5.26074 6V14C5.26074 14.5523 5.70974 15 6.26361 15H14.2865C14.8404 15 15.2894 14.5523 15.2894 14V6C15.2894 5.44772 14.8404 5 14.2865 5Z" fill="#A5A5A8"/>
<path d="M26.3207 5H18.2978C17.7439 5 17.2949 5.44772 17.2949 6V14C17.2949 14.5523 17.7439 15 18.2978 15H26.3207C26.8746 15 27.3236 14.5523 27.3236 14V6C27.3236 5.44772 26.8746 5 26.3207 5Z" fill="#A5A5A8"/>
<path d="M14.2865 17H6.26361C5.70974 17 5.26074 17.4477 5.26074 18V26C5.26074 26.5523 5.70974 27 6.26361 27H14.2865C14.8404 27 15.2894 26.5523 15.2894 26V18C15.2894 17.4477 14.8404 17 14.2865 17Z" fill="#A5A5A8"/>
<path d="M26.3207 17H18.2978C17.7439 17 17.2949 17.4477 17.2949 18V26C17.2949 26.5523 17.7439 27 18.2978 27H26.3207C26.8746 27 27.3236 26.5523 27.3236 26V18C27.3236 17.4477 26.8746 17 26.3207 17Z" fill="#A5A5A8"/>
</svg>
