<svg width="33" height="32" viewBox="0 0 33 32" fill="none" xmlns="http://www.w3.org/2000/svg">
<path d="M30.1352 13.5443C30.0833 13.2514 29.9663 12.9737 29.7929 12.7316C29.6194 12.4895 29.3939 12.2892 29.1327 12.1452L26.56 10.7211C26.3951 10.4023 26.2148 10.0904 26.021 9.78849L26.0705 6.85203C26.0763 6.5549 26.0153 6.26024 25.8921 5.98966C25.7688 5.71908 25.5864 5.47943 25.3582 5.2883C24.0926 4.22541 22.6479 3.39496 21.0912 2.83561C20.8108 2.73391 20.5111 2.69605 20.2141 2.72478C19.9171 2.75352 19.6303 2.84813 19.3747 3.00168L16.8515 4.51139C16.492 4.49436 16.1308 4.49399 15.772 4.51053L13.2465 2.99955C12.9913 2.8459 12.7049 2.75117 12.4083 2.7223C12.1116 2.69344 11.8122 2.73117 11.5321 2.83274C9.97617 3.39419 8.53254 4.2266 7.2684 5.29123C7.03989 5.48255 6.85719 5.7224 6.73367 5.99323C6.61014 6.26406 6.54893 6.55901 6.55451 6.85648L6.60397 9.79026C6.40951 10.0921 6.22869 10.4038 6.06349 10.7221L3.4885 12.1474C3.227 12.2916 3.0012 12.4923 2.82765 12.7349C2.65411 12.9775 2.53722 13.2557 2.48557 13.5492C2.1961 15.1721 2.19753 16.8333 2.4898 18.4557C2.5417 18.7487 2.65866 19.0264 2.83211 19.2685C3.00556 19.5106 3.23111 19.7109 3.49224 19.8548L6.06502 21.279C6.22986 21.5978 6.41018 21.9097 6.60404 22.2116L6.55452 25.148C6.54871 25.4452 6.60966 25.7398 6.73292 26.0104C6.85617 26.281 7.0386 26.5206 7.26682 26.7118C8.53238 27.7747 9.9771 28.6051 11.5338 29.1645C11.8142 29.2662 12.1139 29.3041 12.4109 29.2753C12.7079 29.2466 12.9947 29.152 13.2503 28.9984L15.7735 27.4887C16.133 27.5058 16.4942 27.506 16.853 27.4895L19.3785 29.0005C19.6337 29.1542 19.9201 29.2489 20.2167 29.2777C20.5134 29.3066 20.8127 29.2689 21.0929 29.1673C22.6488 28.6059 24.0924 27.7735 25.3566 26.7088C25.5851 26.5175 25.7678 26.2777 25.8913 26.0068C26.0148 25.736 26.0761 25.4411 26.0705 25.1436L26.021 22.2098C26.2155 21.9079 26.3963 21.5962 26.5615 21.278L29.1365 19.8527C29.398 19.7085 29.6238 19.5077 29.7973 19.2652C29.9709 19.0226 30.0877 18.7444 30.1394 18.4509C30.4289 16.828 30.4275 15.1668 30.1352 13.5443ZM21.8278 16C21.8278 17.0878 21.5043 18.1512 20.8982 19.0557C20.2921 19.9601 19.4307 20.6651 18.4228 21.0814C17.4149 21.4977 16.3059 21.6066 15.2359 21.3944C14.166 21.1821 13.1832 20.6583 12.4118 19.8891C11.6404 19.1199 11.1151 18.1399 10.9022 17.073C10.6894 16.0061 10.7986 14.9003 11.2161 13.8953C11.6336 12.8903 12.3406 12.0313 13.2476 11.427C14.1547 10.8226 15.2211 10.5 16.312 10.5C17.7744 10.5017 19.1764 11.0817 20.2104 12.1128C21.2445 13.1439 21.8261 14.5419 21.8278 16Z" fill="#A5A5A8"/>
</svg>
