<svg width="33" height="32" viewBox="0 0 33 32" fill="none" xmlns="http://www.w3.org/2000/svg">
<path d="M28.0588 16.707L22.7952 21.957C22.7021 22.0499 22.5915 22.1236 22.4699 22.1739C22.3482 22.2241 22.2178 22.25 22.0861 22.25C21.9544 22.25 21.824 22.2242 21.7023 22.174C21.5806 22.1237 21.47 22.0501 21.3769 21.9572C21.2838 21.8644 21.2099 21.7541 21.1595 21.6328C21.109 21.5115 21.0831 21.3815 21.0831 21.2501C21.0831 21.1188 21.109 20.9888 21.1594 20.8674C21.2097 20.7461 21.2836 20.6358 21.3767 20.543L24.9289 17H13.3095C13.0435 17 12.7884 16.8946 12.6003 16.7071C12.4123 16.5196 12.3066 16.2652 12.3066 16C12.3066 15.7348 12.4123 15.4804 12.6003 15.2929C12.7884 15.1054 13.0435 15 13.3095 15H24.9289L21.3767 11.457C21.1887 11.2695 21.083 11.0151 21.0831 10.7499C21.0831 10.4846 21.1888 10.2303 21.3769 10.0428C21.565 9.85527 21.8201 9.74994 22.0861 9.74998C22.3521 9.75001 22.6072 9.8554 22.7952 10.043L28.0588 15.293C28.2468 15.4805 28.3524 15.7348 28.3524 16C28.3524 16.2652 28.2468 16.5195 28.0588 16.707ZM13.3095 26H6.28942V6H13.3095C13.5755 6 13.8305 5.89464 14.0186 5.70711C14.2067 5.51957 14.3123 5.26522 14.3123 5C14.3123 4.73478 14.2067 4.48043 14.0186 4.29289C13.8305 4.10536 13.5755 4 13.3095 4H6.28942C5.75766 4.00061 5.24784 4.21151 4.87183 4.58646C4.49581 4.9614 4.2843 5.46975 4.28369 6V26C4.2843 26.5302 4.49581 27.0386 4.87183 27.4135C5.24784 27.7885 5.75766 27.9994 6.28942 28H13.3095C13.5755 28 13.8305 27.8946 14.0186 27.7071C14.2067 27.5196 14.3123 27.2652 14.3123 27C14.3123 26.7348 14.2067 26.4804 14.0186 26.2929C13.8305 26.1054 13.5755 26 13.3095 26Z" fill="#A5A5A8"/>
</svg>
