<svg width="33" height="32" viewBox="0 0 33 32" fill="none" xmlns="http://www.w3.org/2000/svg">
<path d="M12.7964 14.5566C12.9488 14.4689 13.0754 14.3427 13.1634 14.1907C13.2514 14.0386 13.2978 13.8662 13.2978 13.6907V4.68286C13.2978 4.5229 13.2593 4.36527 13.1855 4.2232C13.1118 4.08114 13.0049 3.9588 12.8739 3.86643C12.7429 3.77407 12.5917 3.71439 12.4328 3.6924C12.2738 3.67041 12.112 3.68675 11.9607 3.74005C9.03312 4.77554 6.57168 6.81793 5.01852 9.50039C3.46535 12.1829 2.92222 15.3296 3.48668 18.3755C3.51582 18.5329 3.58244 18.681 3.68094 18.8075C3.77943 18.9339 3.90693 19.0348 4.0527 19.1019C4.19847 19.1689 4.35825 19.2001 4.51862 19.1928C4.67899 19.1855 4.83525 19.1399 4.97426 19.0598L12.7964 14.5566ZM11.2921 6.19873V13.1133L5.28961 16.5689C5.27994 16.3795 5.27509 16.1899 5.27505 16C5.27725 13.9726 5.84007 11.985 6.90161 10.2558C7.96315 8.52666 9.48231 7.12285 11.2921 6.19873Z" fill="#A5A5A8"/>
<path d="M27.6228 9.54987C27.6143 9.5332 27.6066 9.51636 27.5972 9.5C27.5844 9.4779 27.5702 9.45721 27.556 9.43652C26.4067 7.47853 24.7638 5.85435 22.7904 4.72524C20.817 3.59613 18.5818 3.00137 16.3066 3C16.0406 3 15.7855 3.10536 15.5974 3.2929C15.4093 3.48043 15.3037 3.73478 15.3037 4V15.4227L5.38301 21.134C5.15268 21.2666 4.98461 21.485 4.91577 21.7412C4.84693 21.9974 4.88296 22.2703 5.01593 22.5C5.02016 22.5073 5.02545 22.5135 5.02983 22.5206C5.04091 22.5431 5.05191 22.5655 5.06484 22.5874C6.51492 25.0471 8.73617 26.9628 11.3861 28.0392C14.036 29.1157 16.9675 29.293 19.7285 28.5439C22.4895 27.7948 24.9267 26.1608 26.6643 23.8939C28.4019 21.6271 29.3435 18.8532 29.3438 16C29.3466 13.7368 28.7531 11.5125 27.6228 9.54987Z" fill="#A5A5A8"/>
</svg>
