<svg width="33" height="32" viewBox="0 0 33 32" fill="none" xmlns="http://www.w3.org/2000/svg">
<path d="M10.2838 8C10.2838 7.73478 10.3895 7.48043 10.5775 7.2929C10.7656 7.10536 11.0207 7 11.2867 7H27.3325C27.5985 7 27.8536 7.10536 28.0416 7.29289C28.2297 7.48043 28.3354 7.73478 28.3354 8C28.3354 8.26522 28.2297 8.51957 28.0416 8.70711C27.8536 8.89464 27.5985 9 27.3325 9H11.2867C11.0207 9 10.7656 8.89464 10.5775 8.7071C10.3895 8.51957 10.2838 8.26522 10.2838 8V8ZM27.3325 15H11.2874C11.0214 15 10.7663 15.1054 10.5783 15.2929C10.3902 15.4804 10.2845 15.7348 10.2845 16C10.2845 16.2652 10.3902 16.5196 10.5783 16.7071C10.7663 16.8946 11.0214 17 11.2874 17H27.3325C27.5985 17 27.8536 16.8946 28.0416 16.7071C28.2297 16.5196 28.3354 16.2652 28.3354 16C28.3354 15.7348 28.2297 15.4804 28.0416 15.2929C27.8536 15.1054 27.5985 15 27.3325 15ZM27.3325 23H11.2874C11.0214 23 10.7663 23.1054 10.5783 23.2929C10.3902 23.4804 10.2845 23.7348 10.2845 24C10.2845 24.2652 10.3902 24.5196 10.5783 24.7071C10.7663 24.8946 11.0214 25 11.2874 25H27.3325C27.5985 25 27.8536 24.8946 28.0416 24.7071C28.2297 24.5196 28.3354 24.2652 28.3354 24C28.3354 23.7348 28.2297 23.4804 28.0416 23.2929C27.8536 23.1054 27.5985 23 27.3325 23ZM5.7709 14.5C5.47338 14.5 5.18254 14.588 4.93516 14.7528C4.68778 14.9176 4.49497 15.1519 4.38111 15.426C4.26725 15.7001 4.23746 16.0017 4.29551 16.2926C4.35355 16.5836 4.49682 16.8509 4.7072 17.0607C4.91758 17.2704 5.18562 17.4133 5.47743 17.4712C5.76923 17.5291 6.0717 17.4993 6.34657 17.3858C6.62144 17.2723 6.85638 17.08 7.02168 16.8334C7.18697 16.5867 7.2752 16.2967 7.2752 16C7.27475 15.6023 7.11612 15.221 6.83411 14.9398C6.55209 14.6586 6.16973 14.5004 5.7709 14.5ZM5.7709 6.5C5.47338 6.5 5.18254 6.58797 4.93516 6.7528C4.68778 6.91762 4.49497 7.15189 4.38111 7.42597C4.26725 7.70006 4.23746 8.00166 4.29551 8.29264C4.35355 8.58361 4.49682 8.85088 4.7072 9.06066C4.91758 9.27044 5.18562 9.4133 5.47743 9.47118C5.76923 9.52906 6.0717 9.49935 6.34657 9.38582C6.62144 9.27229 6.85638 9.08003 7.02168 8.83335C7.18697 8.58668 7.2752 8.29667 7.2752 8C7.27475 7.60231 7.11612 7.22104 6.83411 6.93983C6.55209 6.65862 6.16973 6.50044 5.7709 6.5ZM5.7709 22.5C5.47338 22.5 5.18254 22.588 4.93516 22.7528C4.68778 22.9176 4.49497 23.1519 4.38111 23.426C4.26725 23.7001 4.23746 24.0017 4.29551 24.2926C4.35355 24.5836 4.49682 24.8509 4.7072 25.0607C4.91758 25.2704 5.18562 25.4133 5.47743 25.4712C5.76923 25.5291 6.0717 25.4993 6.34657 25.3858C6.62144 25.2723 6.85638 25.08 7.02168 24.8334C7.18697 24.5867 7.2752 24.2967 7.2752 24C7.27475 23.6023 7.11612 23.221 6.83411 22.9398C6.55209 22.6586 6.16973 22.5004 5.7709 22.5V22.5Z" fill="#A5A5A8"/>
</svg>
