<svg width="33" height="32" viewBox="0 0 33 32" fill="none" xmlns="http://www.w3.org/2000/svg">
<path d="M16.3009 20.5C19.3472 20.5 21.8167 18.0376 21.8167 15C21.8167 11.9624 19.3472 9.5 16.3009 9.5C13.2546 9.5 10.7852 11.9624 10.7852 15C10.7852 18.0376 13.2546 20.5 16.3009 20.5Z" fill="#A5A5A8"/>
<path d="M16.3009 3C13.7224 3 11.2018 3.76244 9.05782 5.1909C6.91385 6.61935 5.24284 8.64968 4.25608 11.0251C3.26932 13.4006 3.01114 16.0144 3.51418 18.5362C4.01723 21.0579 5.25891 23.3743 7.0822 25.1924C8.90549 27.0105 11.2285 28.2486 13.7575 28.7502C16.2865 29.2518 18.9078 28.9944 21.2901 28.0104C23.6723 27.0265 25.7085 25.3603 27.141 23.2224C28.5736 21.0846 29.3382 18.5712 29.3382 16C29.3343 12.5534 27.9594 9.24905 25.5153 6.81192C23.0712 4.37479 19.7574 3.0039 16.3009 3ZM24.5442 23.3013C23.7392 22.1382 22.6952 21.1593 21.4816 20.4294C20.0861 21.7584 18.2306 22.5 16.3009 22.5C14.3712 22.5 12.5157 21.7584 11.1202 20.4294C9.90665 21.1593 8.86266 22.1382 8.05759 23.3013C6.64418 21.7165 5.72035 19.7581 5.39734 17.6619C5.07432 15.5657 5.3659 13.4211 6.23696 11.4863C7.10802 9.55148 8.52142 7.90903 10.307 6.75669C12.0925 5.60436 14.174 4.99127 16.3009 4.99127C18.4278 4.99127 20.5093 5.60436 22.2949 6.75669C24.0804 7.90903 25.4938 9.55148 26.3649 11.4863C27.2359 13.4211 27.5275 15.5657 27.2045 17.6619C26.8815 19.7581 25.9576 21.7165 24.5442 23.3013Z" fill="#A5A5A8"/>
</svg>
