<svg width="33" height="32" viewBox="0 0 33 32" fill="none" xmlns="http://www.w3.org/2000/svg">
<path d="M26.2822 7.98059C23.6834 6.68482 20.2338 6 16.3065 6C12.3791 6 8.92956 6.68482 6.3307 7.98059C3.74776 9.26843 2.26636 11.0979 2.26636 13V19C2.26636 20.9021 3.74776 22.7316 6.3307 24.0194C8.92956 25.3152 12.3791 26 16.3065 26C20.2338 26 23.6834 25.3152 26.2822 24.0194C28.8652 22.7316 30.3466 20.9021 30.3466 19V13C30.3466 11.0979 28.8652 9.26843 26.2822 7.98059ZM15.3036 19.9829V23.9819C12.9237 23.9041 10.9128 23.5533 9.28641 23.0451V19.1307C11.251 19.6525 13.271 19.9386 15.3036 19.9829ZM17.3093 19.9829C19.3419 19.9386 21.362 19.6525 23.3265 19.1307V23.0451C21.7002 23.5533 19.6892 23.9041 17.3093 23.9819V19.9829ZM4.27209 19V16.6913C4.90313 17.2138 5.59418 17.6596 6.3307 18.0194C6.63553 18.1714 6.95309 18.3142 7.28068 18.4492V22.2534C5.29668 21.2706 4.27209 20.0367 4.27209 19ZM25.3323 22.2534V18.4492C25.6598 18.3142 25.9774 18.1714 26.2822 18.0194C27.0188 17.6596 27.7098 17.2138 28.3408 16.6913V19C28.3408 20.0367 27.3163 21.2706 25.3323 22.2534Z" fill="#A5A5A8"/>
</svg>
