<svg width="33" height="32" viewBox="0 0 33 32" fill="none" xmlns="http://www.w3.org/2000/svg">
<path d="M22.3181 8H24.3238V10C24.3238 10.2652 24.4294 10.5196 24.6175 10.7071C24.8056 10.8946 25.0607 11 25.3266 11C25.5926 11 25.8477 10.8946 26.0358 10.7071C26.2239 10.5196 26.3295 10.2652 26.3295 10V8H28.3352C28.6012 8 28.8563 7.89464 29.0444 7.70711C29.2325 7.51957 29.3381 7.26522 29.3381 7C29.3381 6.73478 29.2325 6.48043 29.0444 6.29289C28.8563 6.10536 28.6012 6 28.3352 6H26.3295V4C26.3295 3.73478 26.2239 3.48043 26.0358 3.29289C25.8477 3.10536 25.5926 3 25.3266 3C25.0607 3 24.8056 3.10536 24.6175 3.29289C24.4294 3.48043 24.3238 3.73478 24.3238 4V6H22.3181C22.0521 6 21.797 6.10536 21.6089 6.29289C21.4208 6.48043 21.3152 6.73478 21.3152 7C21.3152 7.26522 21.4208 7.51957 21.6089 7.70711C21.797 7.89464 22.0521 8 22.3181 8Z" fill="#A5A5A8"/>
<path d="M29.3302 26.4983C27.4589 23.2845 24.4621 20.874 20.9162 19.7304C22.1132 19.019 23.1291 18.0411 23.8845 16.8733C24.6398 15.7055 25.1142 14.3794 25.2704 12.9986C24.4828 12.9831 23.7326 12.6605 23.1807 12.1C22.6287 11.5394 22.3191 10.7855 22.3181 9.99998C21.6391 10.0001 20.9799 9.77114 20.448 9.3503C19.916 8.92947 19.5425 8.34153 19.3882 7.68214C19.2339 7.02275 19.3079 6.33069 19.5981 5.71855C19.8884 5.10641 20.3778 4.61021 20.9868 4.31066C19.9712 3.69473 18.8436 3.28497 17.6687 3.10491C16.4939 2.92485 15.2949 2.97804 14.1407 3.26143C12.9865 3.54481 11.8999 4.05281 10.9432 4.75623C9.98647 5.45964 9.17858 6.34462 8.56592 7.36032C7.95326 8.37602 7.54791 9.50241 7.37314 10.6748C7.19837 11.8472 7.25764 13.0424 7.54754 14.1919C7.83743 15.3414 8.35225 16.4224 9.0624 17.3729C9.77255 18.3234 10.664 19.1246 11.6857 19.7304C8.1398 20.874 5.14309 23.2844 3.2718 26.498C3.18359 26.65 3.13709 26.8225 3.13696 26.9981C3.13684 27.1737 3.18309 27.3463 3.27108 27.4984C3.35907 27.6506 3.48568 27.7769 3.63818 27.8647C3.79069 27.9526 3.9637 27.9988 4.13982 27.9988L28.4622 27.9991C28.6383 27.9991 28.8113 27.9528 28.9638 27.865C29.1163 27.7772 29.243 27.6508 29.3309 27.4987C29.4189 27.3466 29.4652 27.174 29.4651 26.9984C29.4649 26.8228 29.4184 26.6503 29.3302 26.4983L29.3302 26.4983Z" fill="#A5A5A8"/>
</svg>
