<svg width="33" height="32" viewBox="0 0 33 32" fill="none" xmlns="http://www.w3.org/2000/svg">
<path d="M15.457 19.7434C16.8025 18.8522 17.8246 17.5527 18.3719 16.0372C18.9192 14.5217 18.9627 12.8708 18.4959 11.3287C18.0291 9.78669 17.0768 8.43548 15.7799 7.47508C14.4831 6.51467 12.9107 5.99609 11.2953 5.99609C9.67993 5.99609 8.10747 6.51467 6.81065 7.47508C5.51383 8.43548 4.56154 9.78669 4.09473 11.3287C3.62791 12.8708 3.67137 14.5217 4.21868 16.0372C4.76599 17.5527 5.78805 18.8522 7.13362 19.7434C4.83982 20.5872 2.85734 22.1061 1.44894 24.0989C1.3432 24.2486 1.28075 24.4245 1.26839 24.6072C1.25603 24.79 1.29424 24.9726 1.37885 25.1352C1.46347 25.2977 1.59123 25.434 1.74821 25.5291C1.90519 25.6242 2.08535 25.6745 2.26903 25.6745L20.3212 25.6739C20.5048 25.6739 20.685 25.6235 20.842 25.5284C20.9989 25.4333 21.1267 25.297 21.2113 25.1344C21.2959 24.9718 21.3341 24.7892 21.3217 24.6065C21.3093 24.4237 21.2468 24.2479 21.1411 24.0981C19.7327 22.1057 17.7505 20.5871 15.457 19.7434Z" fill="#A5A5A8"/>
<path d="M31.3605 24.0982C29.9522 22.1057 27.9699 20.5871 25.6764 19.7434C27.1675 18.7536 28.2555 17.2657 28.7444 15.5473C29.2334 13.8289 29.0912 11.9929 28.3435 10.3697C27.5959 8.74647 26.2917 7.44265 24.6659 6.69282C23.04 5.943 21.1991 5.79641 19.4745 6.27943C19.3179 6.32333 19.1744 6.40455 19.0564 6.51608C18.9383 6.62761 18.8492 6.7661 18.7967 6.91961C18.7443 7.07312 18.7301 7.23705 18.7553 7.39726C18.7806 7.55747 18.8445 7.70916 18.9416 7.83924C20.0753 9.35774 20.727 11.1799 20.8128 13.0711C20.8986 14.9622 20.4146 16.8356 19.4231 18.45C19.2922 18.6629 19.2458 18.917 19.2933 19.1622C19.3407 19.4074 19.4785 19.6261 19.6794 19.7752C20.0597 20.0573 20.4255 20.3583 20.7755 20.677C20.7936 20.6966 20.8119 20.7161 20.8318 20.7345C22.1703 21.9684 23.2552 23.4504 24.0258 25.0977C24.1065 25.2701 24.2349 25.4159 24.3959 25.5181C24.5569 25.6203 24.7437 25.6746 24.9346 25.6746L30.5407 25.6739C30.7243 25.6739 30.9045 25.6235 31.0614 25.5284C31.2184 25.4333 31.3461 25.297 31.4307 25.1344C31.5153 24.9718 31.5535 24.7892 31.5411 24.6065C31.5287 24.4237 31.4663 24.2479 31.3605 24.0981L31.3605 24.0982Z" fill="#A5A5A8"/>
</svg>
