<svg width="33" height="32" viewBox="0 0 33 32" fill="none" xmlns="http://www.w3.org/2000/svg">
<path d="M28.3438 6H4.27502C3.74325 6.00061 3.23344 6.21151 2.85743 6.58646C2.48141 6.9614 2.2699 7.46975 2.26929 8V12.092C2.26923 12.0969 2.26855 12.1017 2.26855 12.1066C2.26855 12.1114 2.26923 12.1162 2.26929 12.1211V24C2.2699 24.5302 2.48141 25.0386 2.85743 25.4135C3.23344 25.7885 3.74325 25.9994 4.27502 26H28.3438C28.8756 25.9994 29.3854 25.7885 29.7614 25.4135C30.1374 25.0386 30.3489 24.5302 30.3495 24V8C30.3489 7.46975 30.1374 6.9614 29.7614 6.58646C29.3854 6.21151 28.8756 6.00061 28.3438 6ZM17.3115 22H15.3058C15.0398 22 14.7847 21.8946 14.5967 21.7071C14.4086 21.5196 14.3029 21.2652 14.3029 21C14.3029 20.7348 14.4086 20.4804 14.5967 20.2929C14.7847 20.1054 15.0398 20 15.3058 20H17.3115C17.5775 20 17.8326 20.1054 18.0207 20.2929C18.2087 20.4804 18.3144 20.7348 18.3144 21C18.3144 21.2652 18.2087 21.5196 18.0207 21.7071C17.8326 21.8946 17.5775 22 17.3115 22ZM25.3345 22H21.323C21.057 22 20.8019 21.8946 20.6139 21.7071C20.4258 21.5196 20.3201 21.2652 20.3201 21C20.3201 20.7348 20.4258 20.4804 20.6139 20.2929C20.8019 20.1054 21.057 20 21.323 20H25.3345C25.6004 20 25.8555 20.1054 26.0436 20.2929C26.2317 20.4804 26.3373 20.7348 26.3373 21C26.3373 21.2652 26.2317 21.5196 26.0436 21.7071C25.8555 21.8946 25.6004 22 25.3345 22ZM4.27502 11.1066V8H28.3438L28.344 11.1066H4.27502Z" fill="#A5A5A8"/>
</svg>
